<?xml version="1.0" encoding="UTF-8"?>
<svg width="226px" height="186px" viewBox="0 0 226 186" version="1.1" xmlns="http://www.w3.org/2000/svg" xmlns:xlink="http://www.w3.org/1999/xlink">
    <title>dotted-square</title>
    <g id="components" stroke="none" stroke-width="1" fill="none" fill-rule="evenodd">
        <g id="components-/-centered-text" transform="translate(-787.000000, -51.000000)" fill="#EDEFF1">
            <g id="dotted-square" transform="translate(787.000000, 51.000000)">
                <path d="M143,180 C144.656854,180 146,181.343146 146,183 C146,184.656854 144.656854,186 143,186 C141.343146,186 140,184.656854 140,183 C140,181.343146 141.343146,180 143,180 Z M163,180 C164.656854,180 166,181.343146 166,183 C166,184.656854 164.656854,186 163,186 C161.343146,186 160,184.656854 160,183 C160,181.343146 161.343146,180 163,180 Z M183,180 C184.656854,180 186,181.343146 186,183 C186,184.656854 184.656854,186 183,186 C181.343146,186 180,184.656854 180,183 C180,181.343146 181.343146,180 183,180 Z M203,180 C204.656854,180 206,181.343146 206,183 C206,184.656854 204.656854,186 203,186 C201.343146,186 200,184.656854 200,183 C200,181.343146 201.343146,180 203,180 Z M223,180 C224.656854,180 226,181.343146 226,183 C226,184.656854 224.656854,186 223,186 C221.343146,186 220,184.656854 220,183 C220,181.343146 221.343146,180 223,180 Z M23,180 C24.6568542,180 26,181.343146 26,183 C26,184.656854 24.6568542,186 23,186 C21.3431458,186 20,184.656854 20,183 C20,181.343146 21.3431458,180 23,180 Z M43,180 C44.6568542,180 46,181.343146 46,183 C46,184.656854 44.6568542,186 43,186 C41.3431458,186 40,184.656854 40,183 C40,181.343146 41.3431458,180 43,180 Z M63,180 C64.6568542,180 66,181.343146 66,183 C66,184.656854 64.6568542,186 63,186 C61.3431458,186 60,184.656854 60,183 C60,181.343146 61.3431458,180 63,180 Z M83,180 C84.6568542,180 86,181.343146 86,183 C86,184.656854 84.6568542,186 83,186 C81.3431458,186 80,184.656854 80,183 C80,181.343146 81.3431458,180 83,180 Z M103,180 C104.656854,180 106,181.343146 106,183 C106,184.656854 104.656854,186 103,186 C101.343146,186 100,184.656854 100,183 C100,181.343146 101.343146,180 103,180 Z M123,180 C124.656854,180 126,181.343146 126,183 C126,184.656854 124.656854,186 123,186 C121.343146,186 120,184.656854 120,183 C120,181.343146 121.343146,180 123,180 Z M3,180 C4.65685425,180 6,181.343146 6,183 C6,184.656854 4.65685425,186 3,186 C1.34314575,186 0,184.656854 0,183 C0,181.343146 1.34314575,180 3,180 Z M63,160 C64.6568542,160 66,161.343146 66,163 C66,164.656854 64.6568542,166 63,166 C61.3431458,166 60,164.656854 60,163 C60,161.343146 61.3431458,160 63,160 Z M83,160 C84.6568542,160 86,161.343146 86,163 C86,164.656854 84.6568542,166 83,166 C81.3431458,166 80,164.656854 80,163 C80,161.343146 81.3431458,160 83,160 Z M103,160 C104.656854,160 106,161.343146 106,163 C106,164.656854 104.656854,166 103,166 C101.343146,166 100,164.656854 100,163 C100,161.343146 101.343146,160 103,160 Z M123,160 C124.656854,160 126,161.343146 126,163 C126,164.656854 124.656854,166 123,166 C121.343146,166 120,164.656854 120,163 C120,161.343146 121.343146,160 123,160 Z M3,160 C4.65685425,160 6,161.343146 6,163 C6,164.656854 4.65685425,166 3,166 C1.34314575,166 0,164.656854 0,163 C0,161.343146 1.34314575,160 3,160 Z M223,160 C224.656854,160 226,161.343146 226,163 C226,164.656854 224.656854,166 223,166 C221.343146,166 220,164.656854 220,163 C220,161.343146 221.343146,160 223,160 Z M203,160 C204.656854,160 206,161.343146 206,163 C206,164.656854 204.656854,166 203,166 C201.343146,166 200,164.656854 200,163 C200,161.343146 201.343146,160 203,160 Z M183,160 C184.656854,160 186,161.343146 186,163 C186,164.656854 184.656854,166 183,166 C181.343146,166 180,164.656854 180,163 C180,161.343146 181.343146,160 183,160 Z M163,160 C164.656854,160 166,161.343146 166,163 C166,164.656854 164.656854,166 163,166 C161.343146,166 160,164.656854 160,163 C160,161.343146 161.343146,160 163,160 Z M143,160 C144.656854,160 146,161.343146 146,163 C146,164.656854 144.656854,166 143,166 C141.343146,166 140,164.656854 140,163 C140,161.343146 141.343146,160 143,160 Z M23,160 C24.6568542,160 26,161.343146 26,163 C26,164.656854 24.6568542,166 23,166 C21.3431458,166 20,164.656854 20,163 C20,161.343146 21.3431458,160 23,160 Z M43,160 C44.6568542,160 46,161.343146 46,163 C46,164.656854 44.6568542,166 43,166 C41.3431458,166 40,164.656854 40,163 C40,161.343146 41.3431458,160 43,160 Z M23,140 C24.6568542,140 26,141.343146 26,143 C26,144.656854 24.6568542,146 23,146 C21.3431458,146 20,144.656854 20,143 C20,141.343146 21.3431458,140 23,140 Z M43,140 C44.6568542,140 46,141.343146 46,143 C46,144.656854 44.6568542,146 43,146 C41.3431458,146 40,144.656854 40,143 C40,141.343146 41.3431458,140 43,140 Z M63,140 C64.6568542,140 66,141.343146 66,143 C66,144.656854 64.6568542,146 63,146 C61.3431458,146 60,144.656854 60,143 C60,141.343146 61.3431458,140 63,140 Z M83,140 C84.6568542,140 86,141.343146 86,143 C86,144.656854 84.6568542,146 83,146 C81.3431458,146 80,144.656854 80,143 C80,141.343146 81.3431458,140 83,140 Z M103,140 C104.656854,140 106,141.343146 106,143 C106,144.656854 104.656854,146 103,146 C101.343146,146 100,144.656854 100,143 C100,141.343146 101.343146,140 103,140 Z M183,140 C184.656854,140 186,141.343146 186,143 C186,144.656854 184.656854,146 183,146 C181.343146,146 180,144.656854 180,143 C180,141.343146 181.343146,140 183,140 Z M223,140 C224.656854,140 226,141.343146 226,143 C226,144.656854 224.656854,146 223,146 C221.343146,146 220,144.656854 220,143 C220,141.343146 221.343146,140 223,140 Z M123,140 C124.656854,140 126,141.343146 126,143 C126,144.656854 124.656854,146 123,146 C121.343146,146 120,144.656854 120,143 C120,141.343146 121.343146,140 123,140 Z M3,140 C4.65685425,140 6,141.343146 6,143 C6,144.656854 4.65685425,146 3,146 C1.34314575,146 0,144.656854 0,143 C0,141.343146 1.34314575,140 3,140 Z M203,140 C204.656854,140 206,141.343146 206,143 C206,144.656854 204.656854,146 203,146 C201.343146,146 200,144.656854 200,143 C200,141.343146 201.343146,140 203,140 Z M143,140 C144.656854,140 146,141.343146 146,143 C146,144.656854 144.656854,146 143,146 C141.343146,146 140,144.656854 140,143 C140,141.343146 141.343146,140 143,140 Z M163,140 C164.656854,140 166,141.343146 166,143 C166,144.656854 164.656854,146 163,146 C161.343146,146 160,144.656854 160,143 C160,141.343146 161.343146,140 163,140 Z M63,120 C64.6568542,120 66,121.343146 66,123 C66,124.656854 64.6568542,126 63,126 C61.3431458,126 60,124.656854 60,123 C60,121.343146 61.3431458,120 63,120 Z M83,120 C84.6568542,120 86,121.343146 86,123 C86,124.656854 84.6568542,126 83,126 C81.3431458,126 80,124.656854 80,123 C80,121.343146 81.3431458,120 83,120 Z M23,120 C24.6568542,120 26,121.343146 26,123 C26,124.656854 24.6568542,126 23,126 C21.3431458,126 20,124.656854 20,123 C20,121.343146 21.3431458,120 23,120 Z M43,120 C44.6568542,120 46,121.343146 46,123 C46,124.656854 44.6568542,126 43,126 C41.3431458,126 40,124.656854 40,123 C40,121.343146 41.3431458,120 43,120 Z M183,120 C184.656854,120 186,121.343146 186,123 C186,124.656854 184.656854,126 183,126 C181.343146,126 180,124.656854 180,123 C180,121.343146 181.343146,120 183,120 Z M103,120 C104.656854,120 106,121.343146 106,123 C106,124.656854 104.656854,126 103,126 C101.343146,126 100,124.656854 100,123 C100,121.343146 101.343146,120 103,120 Z M123,120 C124.656854,120 126,121.343146 126,123 C126,124.656854 124.656854,126 123,126 C121.343146,126 120,124.656854 120,123 C120,121.343146 121.343146,120 123,120 Z M203,120 C204.656854,120 206,121.343146 206,123 C206,124.656854 204.656854,126 203,126 C201.343146,126 200,124.656854 200,123 C200,121.343146 201.343146,120 203,120 Z M3,120 C4.65685425,120 6,121.343146 6,123 C6,124.656854 4.65685425,126 3,126 C1.34314575,126 0,124.656854 0,123 C0,121.343146 1.34314575,120 3,120 Z M163,120 C164.656854,120 166,121.343146 166,123 C166,124.656854 164.656854,126 163,126 C161.343146,126 160,124.656854 160,123 C160,121.343146 161.343146,120 163,120 Z M143,120 C144.656854,120 146,121.343146 146,123 C146,124.656854 144.656854,126 143,126 C141.343146,126 140,124.656854 140,123 C140,121.343146 141.343146,120 143,120 Z M223,120 C224.656854,120 226,121.343146 226,123 C226,124.656854 224.656854,126 223,126 C221.343146,126 220,124.656854 220,123 C220,121.343146 221.343146,120 223,120 Z M183,100 C184.656854,100 186,101.343146 186,103 C186,104.656854 184.656854,106 183,106 C181.343146,106 180,104.656854 180,103 C180,101.343146 181.343146,100 183,100 Z M63,100 C64.6568542,100 66,101.343146 66,103 C66,104.656854 64.6568542,106 63,106 C61.3431458,106 60,104.656854 60,103 C60,101.343146 61.3431458,100 63,100 Z M103,100 C104.656854,100 106,101.343146 106,103 C106,104.656854 104.656854,106 103,106 C101.343146,106 100,104.656854 100,103 C100,101.343146 101.343146,100 103,100 Z M143,100 C144.656854,100 146,101.343146 146,103 C146,104.656854 144.656854,106 143,106 C141.343146,106 140,104.656854 140,103 C140,101.343146 141.343146,100 143,100 Z M43,100 C44.6568542,100 46,101.343146 46,103 C46,104.656854 44.6568542,106 43,106 C41.3431458,106 40,104.656854 40,103 C40,101.343146 41.3431458,100 43,100 Z M203,100 C204.656854,100 206,101.343146 206,103 C206,104.656854 204.656854,106 203,106 C201.343146,106 200,104.656854 200,103 C200,101.343146 201.343146,100 203,100 Z M163,100 C164.656854,100 166,101.343146 166,103 C166,104.656854 164.656854,106 163,106 C161.343146,106 160,104.656854 160,103 C160,101.343146 161.343146,100 163,100 Z M83,100 C84.6568542,100 86,101.343146 86,103 C86,104.656854 84.6568542,106 83,106 C81.3431458,106 80,104.656854 80,103 C80,101.343146 81.3431458,100 83,100 Z M23,100 C24.6568542,100 26,101.343146 26,103 C26,104.656854 24.6568542,106 23,106 C21.3431458,106 20,104.656854 20,103 C20,101.343146 21.3431458,100 23,100 Z M3,100 C4.65685425,100 6,101.343146 6,103 C6,104.656854 4.65685425,106 3,106 C1.34314575,106 0,104.656854 0,103 C0,101.343146 1.34314575,100 3,100 Z M223,100 C224.656854,100 226,101.343146 226,103 C226,104.656854 224.656854,106 223,106 C221.343146,106 220,104.656854 220,103 C220,101.343146 221.343146,100 223,100 Z M123,100 C124.656854,100 126,101.343146 126,103 C126,104.656854 124.656854,106 123,106 C121.343146,106 120,104.656854 120,103 C120,101.343146 121.343146,100 123,100 Z M123,80 C124.656854,80 126,81.3431458 126,83 C126,84.6568542 124.656854,86 123,86 C121.343146,86 120,84.6568542 120,83 C120,81.3431458 121.343146,80 123,80 Z M223,80 C224.656854,80 226,81.3431458 226,83 C226,84.6568542 224.656854,86 223,86 C221.343146,86 220,84.6568542 220,83 C220,81.3431458 221.343146,80 223,80 Z M63,80 C64.6568542,80 66,81.3431458 66,83 C66,84.6568542 64.6568542,86 63,86 C61.3431458,86 60,84.6568542 60,83 C60,81.3431458 61.3431458,80 63,80 Z M103,80 C104.656854,80 106,81.3431458 106,83 C106,84.6568542 104.656854,86 103,86 C101.343146,86 100,84.6568542 100,83 C100,81.3431458 101.343146,80 103,80 Z M23,80 C24.6568542,80 26,81.3431458 26,83 C26,84.6568542 24.6568542,86 23,86 C21.3431458,86 20,84.6568542 20,83 C20,81.3431458 21.3431458,80 23,80 Z M163,80 C164.656854,80 166,81.3431458 166,83 C166,84.6568542 164.656854,86 163,86 C161.343146,86 160,84.6568542 160,83 C160,81.3431458 161.343146,80 163,80 Z M43,80 C44.6568542,80 46,81.3431458 46,83 C46,84.6568542 44.6568542,86 43,86 C41.3431458,86 40,84.6568542 40,83 C40,81.3431458 41.3431458,80 43,80 Z M203,80 C204.656854,80 206,81.3431458 206,83 C206,84.6568542 204.656854,86 203,86 C201.343146,86 200,84.6568542 200,83 C200,81.3431458 201.343146,80 203,80 Z M3,80 C4.65685425,80 6,81.3431458 6,83 C6,84.6568542 4.65685425,86 3,86 C1.34314575,86 0,84.6568542 0,83 C0,81.3431458 1.34314575,80 3,80 Z M83,80 C84.6568542,80 86,81.3431458 86,83 C86,84.6568542 84.6568542,86 83,86 C81.3431458,86 80,84.6568542 80,83 C80,81.3431458 81.3431458,80 83,80 Z M183,80 C184.656854,80 186,81.3431458 186,83 C186,84.6568542 184.656854,86 183,86 C181.343146,86 180,84.6568542 180,83 C180,81.3431458 181.343146,80 183,80 Z M143,80 C144.656854,80 146,81.3431458 146,83 C146,84.6568542 144.656854,86 143,86 C141.343146,86 140,84.6568542 140,83 C140,81.3431458 141.343146,80 143,80 Z M23,60 C24.6568542,60 26,61.3431458 26,63 C26,64.6568542 24.6568542,66 23,66 C21.3431458,66 20,64.6568542 20,63 C20,61.3431458 21.3431458,60 23,60 Z M63,60 C64.6568542,60 66,61.3431458 66,63 C66,64.6568542 64.6568542,66 63,66 C61.3431458,66 60,64.6568542 60,63 C60,61.3431458 61.3431458,60 63,60 Z M203,60 C204.656854,60 206,61.3431458 206,63 C206,64.6568542 204.656854,66 203,66 C201.343146,66 200,64.6568542 200,63 C200,61.3431458 201.343146,60 203,60 Z M3,60 C4.65685425,60 6,61.3431458 6,63 C6,64.6568542 4.65685425,66 3,66 C1.34314575,66 0,64.6568542 0,63 C0,61.3431458 1.34314575,60 3,60 Z M43,60 C44.6568542,60 46,61.3431458 46,63 C46,64.6568542 44.6568542,66 43,66 C41.3431458,66 40,64.6568542 40,63 C40,61.3431458 41.3431458,60 43,60 Z M103,60 C104.656854,60 106,61.3431458 106,63 C106,64.6568542 104.656854,66 103,66 C101.343146,66 100,64.6568542 100,63 C100,61.3431458 101.343146,60 103,60 Z M183,60 C184.656854,60 186,61.3431458 186,63 C186,64.6568542 184.656854,66 183,66 C181.343146,66 180,64.6568542 180,63 C180,61.3431458 181.343146,60 183,60 Z M83,60 C84.6568542,60 86,61.3431458 86,63 C86,64.6568542 84.6568542,66 83,66 C81.3431458,66 80,64.6568542 80,63 C80,61.3431458 81.3431458,60 83,60 Z M123,60 C124.656854,60 126,61.3431458 126,63 C126,64.6568542 124.656854,66 123,66 C121.343146,66 120,64.6568542 120,63 C120,61.3431458 121.343146,60 123,60 Z M143,60 C144.656854,60 146,61.3431458 146,63 C146,64.6568542 144.656854,66 143,66 C141.343146,66 140,64.6568542 140,63 C140,61.3431458 141.343146,60 143,60 Z M163,60 C164.656854,60 166,61.3431458 166,63 C166,64.6568542 164.656854,66 163,66 C161.343146,66 160,64.6568542 160,63 C160,61.3431458 161.343146,60 163,60 Z M223,60 C224.656854,60 226,61.3431458 226,63 C226,64.6568542 224.656854,66 223,66 C221.343146,66 220,64.6568542 220,63 C220,61.3431458 221.343146,60 223,60 Z M23,40 C24.6568542,40 26,41.3431458 26,43 C26,44.6568542 24.6568542,46 23,46 C21.3431458,46 20,44.6568542 20,43 C20,41.3431458 21.3431458,40 23,40 Z M103,40 C104.656854,40 106,41.3431458 106,43 C106,44.6568542 104.656854,46 103,46 C101.343146,46 100,44.6568542 100,43 C100,41.3431458 101.343146,40 103,40 Z M163,40 C164.656854,40 166,41.3431458 166,43 C166,44.6568542 164.656854,46 163,46 C161.343146,46 160,44.6568542 160,43 C160,41.3431458 161.343146,40 163,40 Z M143,40 C144.656854,40 146,41.3431458 146,43 C146,44.6568542 144.656854,46 143,46 C141.343146,46 140,44.6568542 140,43 C140,41.3431458 141.343146,40 143,40 Z M203,40 C204.656854,40 206,41.3431458 206,43 C206,44.6568542 204.656854,46 203,46 C201.343146,46 200,44.6568542 200,43 C200,41.3431458 201.343146,40 203,40 Z M123,40 C124.656854,40 126,41.3431458 126,43 C126,44.6568542 124.656854,46 123,46 C121.343146,46 120,44.6568542 120,43 C120,41.3431458 121.343146,40 123,40 Z M3,40 C4.65685425,40 6,41.3431458 6,43 C6,44.6568542 4.65685425,46 3,46 C1.34314575,46 0,44.6568542 0,43 C0,41.3431458 1.34314575,40 3,40 Z M43,40 C44.6568542,40 46,41.3431458 46,43 C46,44.6568542 44.6568542,46 43,46 C41.3431458,46 40,44.6568542 40,43 C40,41.3431458 41.3431458,40 43,40 Z M83,40 C84.6568542,40 86,41.3431458 86,43 C86,44.6568542 84.6568542,46 83,46 C81.3431458,46 80,44.6568542 80,43 C80,41.3431458 81.3431458,40 83,40 Z M223,40 C224.656854,40 226,41.3431458 226,43 C226,44.6568542 224.656854,46 223,46 C221.343146,46 220,44.6568542 220,43 C220,41.3431458 221.343146,40 223,40 Z M63,40 C64.6568542,40 66,41.3431458 66,43 C66,44.6568542 64.6568542,46 63,46 C61.3431458,46 60,44.6568542 60,43 C60,41.3431458 61.3431458,40 63,40 Z M183,40 C184.656854,40 186,41.3431458 186,43 C186,44.6568542 184.656854,46 183,46 C181.343146,46 180,44.6568542 180,43 C180,41.3431458 181.343146,40 183,40 Z M23,20 C24.6568542,20 26,21.3431458 26,23 C26,24.6568542 24.6568542,26 23,26 C21.3431458,26 20,24.6568542 20,23 C20,21.3431458 21.3431458,20 23,20 Z M43,20 C44.6568542,20 46,21.3431458 46,23 C46,24.6568542 44.6568542,26 43,26 C41.3431458,26 40,24.6568542 40,23 C40,21.3431458 41.3431458,20 43,20 Z M63,20 C64.6568542,20 66,21.3431458 66,23 C66,24.6568542 64.6568542,26 63,26 C61.3431458,26 60,24.6568542 60,23 C60,21.3431458 61.3431458,20 63,20 Z M83,20 C84.6568542,20 86,21.3431458 86,23 C86,24.6568542 84.6568542,26 83,26 C81.3431458,26 80,24.6568542 80,23 C80,21.3431458 81.3431458,20 83,20 Z M103,20 C104.656854,20 106,21.3431458 106,23 C106,24.6568542 104.656854,26 103,26 C101.343146,26 100,24.6568542 100,23 C100,21.3431458 101.343146,20 103,20 Z M123,20 C124.656854,20 126,21.3431458 126,23 C126,24.6568542 124.656854,26 123,26 C121.343146,26 120,24.6568542 120,23 C120,21.3431458 121.343146,20 123,20 Z M143,20 C144.656854,20 146,21.3431458 146,23 C146,24.6568542 144.656854,26 143,26 C141.343146,26 140,24.6568542 140,23 C140,21.3431458 141.343146,20 143,20 Z M163,20 C164.656854,20 166,21.3431458 166,23 C166,24.6568542 164.656854,26 163,26 C161.343146,26 160,24.6568542 160,23 C160,21.3431458 161.343146,20 163,20 Z M183,20 C184.656854,20 186,21.3431458 186,23 C186,24.6568542 184.656854,26 183,26 C181.343146,26 180,24.6568542 180,23 C180,21.3431458 181.343146,20 183,20 Z M203,20 C204.656854,20 206,21.3431458 206,23 C206,24.6568542 204.656854,26 203,26 C201.343146,26 200,24.6568542 200,23 C200,21.3431458 201.343146,20 203,20 Z M223,20 C224.656854,20 226,21.3431458 226,23 C226,24.6568542 224.656854,26 223,26 C221.343146,26 220,24.6568542 220,23 C220,21.3431458 221.343146,20 223,20 Z M3,20 C4.65685425,20 6,21.3431458 6,23 C6,24.6568542 4.65685425,26 3,26 C1.34314575,26 0,24.6568542 0,23 C0,21.3431458 1.34314575,20 3,20 Z M23,0 C24.6568542,0 26,1.34314575 26,3 C26,4.65685425 24.6568542,6 23,6 C21.3431458,6 20,4.65685425 20,3 C20,1.34314575 21.3431458,0 23,0 Z M3,0 C4.65685425,0 6,1.34314575 6,3 C6,4.65685425 4.65685425,6 3,6 C1.34314575,6 0,4.65685425 0,3 C0,1.34314575 1.34314575,0 3,0 Z M43,0 C44.6568542,0 46,1.34314575 46,3 C46,4.65685425 44.6568542,6 43,6 C41.3431458,6 40,4.65685425 40,3 C40,1.34314575 41.3431458,0 43,0 Z M63,0 C64.6568542,0 66,1.34314575 66,3 C66,4.65685425 64.6568542,6 63,6 C61.3431458,6 60,4.65685425 60,3 C60,1.34314575 61.3431458,0 63,0 Z M83,0 C84.6568542,0 86,1.34314575 86,3 C86,4.65685425 84.6568542,6 83,6 C81.3431458,6 80,4.65685425 80,3 C80,1.34314575 81.3431458,0 83,0 Z M103,0 C104.656854,0 106,1.34314575 106,3 C106,4.65685425 104.656854,6 103,6 C101.343146,6 100,4.65685425 100,3 C100,1.34314575 101.343146,0 103,0 Z M123,0 C124.656854,0 126,1.34314575 126,3 C126,4.65685425 124.656854,6 123,6 C121.343146,6 120,4.65685425 120,3 C120,1.34314575 121.343146,0 123,0 Z M143,0 C144.656854,0 146,1.34314575 146,3 C146,4.65685425 144.656854,6 143,6 C141.343146,6 140,4.65685425 140,3 C140,1.34314575 141.343146,0 143,0 Z M163,0 C164.656854,0 166,1.34314575 166,3 C166,4.65685425 164.656854,6 163,6 C161.343146,6 160,4.65685425 160,3 C160,1.34314575 161.343146,0 163,0 Z M183,0 C184.656854,0 186,1.34314575 186,3 C186,4.65685425 184.656854,6 183,6 C181.343146,6 180,4.65685425 180,3 C180,1.34314575 181.343146,0 183,0 Z M203,0 C204.656854,0 206,1.34314575 206,3 C206,4.65685425 204.656854,6 203,6 C201.343146,6 200,4.65685425 200,3 C200,1.34314575 201.343146,0 203,0 Z M223,0 C224.656854,0 226,1.34314575 226,3 C226,4.65685425 224.656854,6 223,6 C221.343146,6 220,4.65685425 220,3 C220,1.34314575 221.343146,0 223,0 Z" transform="translate(113.000000, 93.000000) scale(-1, 1) translate(-113.000000, -93.000000) "></path>
            </g>
        </g>
    </g>
</svg>